<svg width="34" height="34" viewBox="0 0 34 34" fill="none" xmlns="http://www.w3.org/2000/svg">
<path d="M17 21.5C12.0294 21.5 8 17.4706 8 12.5V4.16667C8 3.5459 8 3.23551 8.09046 2.98697C8.24211 2.57032 8.57032 2.24211 8.98697 2.09046C9.23551 2 9.54589 2 10.1667 2H23.8333C24.4541 2 24.7645 2 25.013 2.09046C25.4297 2.24211 25.7579 2.57032 25.9095 2.98697C26 3.23551 26 3.5459 26 4.16667V12.5C26 17.4706 21.9706 21.5 17 21.5ZM17 21.5V26M26 5H29.75C30.4489 5 30.7984 5 31.074 5.11418C31.4416 5.26642 31.7336 5.55843 31.8858 5.92597C32 6.20163 32 6.55109 32 7.25V8C32 9.39496 32 10.0924 31.8467 10.6647C31.4306 12.2176 30.2176 13.4306 28.6647 13.8467C28.0924 14 27.395 14 26 14M8 5H4.25C3.55109 5 3.20163 5 2.92597 5.11418C2.55843 5.26642 2.26642 5.55843 2.11418 5.92597C2 6.20163 2 6.55109 2 7.25V8C2 9.39496 2 10.0924 2.15333 10.6647C2.56944 12.2176 3.7824 13.4306 5.33531 13.8467C5.90756 14 6.60504 14 8 14M10.1667 32H23.8333C24.2015 32 24.5 31.7015 24.5 31.3333C24.5 28.3878 22.1122 26 19.1667 26H14.8333C11.8878 26 9.5 28.3878 9.5 31.3333C9.5 31.7015 9.79848 32 10.1667 32Z" stroke="#BE9E45" stroke-width="3" stroke-linecap="round" stroke-linejoin="round"/>
</svg>
