<svg width="100" height="82" viewBox="0 0 100 82" fill="none" xmlns="http://www.w3.org/2000/svg">
<path d="M58.8 3.05117V19.1603C58.8 21.3445 58.8 22.4366 59.2179 23.2708C59.5856 24.0047 60.1722 24.6013 60.8938 24.9752C61.7141 25.4003 62.7879 25.4003 64.9356 25.4003H80.7754M58.8 2H38.8591C32.4161 2 29.1945 2 26.7336 3.27522C24.5689 4.39694 22.809 6.18681 21.706 8.38831C20.4521 10.8911 20.4521 14.1674 20.4521 20.72V61.28C20.4521 67.8326 20.4521 71.1089 21.706 73.6117C22.809 75.8132 24.5689 77.6031 26.7336 78.7248C29.1945 80 32.4161 80 38.8591 80H63.4017C69.8448 80 73.0663 80 75.5272 78.7248C77.6919 77.6031 79.4518 75.8132 80.5548 73.6117C81.8087 71.1089 81.8087 67.8326 81.8087 61.28V25.4L58.8 2Z" stroke="#BE9E45" stroke-width="3" stroke-linecap="round" stroke-linejoin="round"/>
<rect x="1" y="23.5715" width="43.1652" height="25.4286" rx="2" fill="#242424" stroke="#BE9E45" stroke-width="2"/>
<path d="M34.0869 66.2856H65.6174" stroke="#BE9E45" stroke-width="3" stroke-linecap="round"/>
<path d="M34.0869 56H65.6174" stroke="#BE9E45" stroke-width="3" stroke-linecap="round"/>
<path d="M48.5737 45.7144L68.1737 45.7144" stroke="#BE9E45" stroke-width="3" stroke-linecap="round"/>
<path d="M48.5737 36.2856L68.1737 36.2856" stroke="#BE9E45" stroke-width="3" stroke-linecap="round"/>
<path d="M38.3477 14L53.6868 14" stroke="#BE9E45" stroke-width="3" stroke-linecap="round"/>
<ellipse cx="29.8261" cy="13.9999" rx="2.55652" ry="2.57143" fill="#BE9E45"/>
<path d="M72.4346 56.1714C72.4346 54.0112 72.4346 52.9311 72.8525 52.106C73.2202 51.3803 73.8068 50.7902 74.5284 50.4204C75.3487 50 76.4225 50 78.5702 50H91.8641C94.0118 50 95.0857 50 95.906 50.4204C96.6275 50.7902 97.2142 51.3803 97.5818 52.106C97.9998 52.9311 97.9998 54.0112 97.9998 56.1714V64.4C97.9998 66.5602 97.9998 67.6403 97.5818 68.4654C97.2142 69.1912 96.6275 69.7812 95.906 70.151C95.0857 70.5714 94.0118 70.5714 91.8641 70.5714H78.5702C76.4225 70.5714 75.3487 70.5714 74.5284 70.151C73.8068 69.7812 73.2202 69.1912 72.8525 68.4654C72.4346 67.6403 72.4346 66.5602 72.4346 64.4V56.1714Z" fill="#242424"/>
<path d="M72.4346 53.8571L82.8715 61.2056C83.7166 61.8006 84.1392 62.0982 84.5988 62.2134C85.0049 62.3152 85.4295 62.3152 85.8355 62.2134C86.2952 62.0982 86.7177 61.8006 87.5629 61.2056L97.9998 53.8571M78.5702 70.5714H91.8641C94.0118 70.5714 95.0857 70.5714 95.906 70.151C96.6275 69.7812 97.2142 69.1912 97.5818 68.4654C97.9998 67.6403 97.9998 66.5602 97.9998 64.4V56.1714C97.9998 54.0112 97.9998 52.9311 97.5818 52.106C97.2142 51.3803 96.6275 50.7902 95.906 50.4204C95.0857 50 94.0118 50 91.8641 50H78.5702C76.4225 50 75.3487 50 74.5284 50.4204C73.8068 50.7902 73.2202 51.3803 72.8525 52.106C72.4346 52.9311 72.4346 54.0112 72.4346 56.1714V64.4C72.4346 66.5602 72.4346 67.6403 72.8525 68.4654C73.2202 69.1912 73.8068 69.7812 74.5284 70.151C75.3487 70.5714 76.4225 70.5714 78.5702 70.5714Z" stroke="#BE9E45" stroke-width="2.5" stroke-linecap="round" stroke-linejoin="round"/>
</svg>
