<svg width="75" height="75" viewBox="0 0 75 75" fill="none" xmlns="http://www.w3.org/2000/svg">
<path d="M10.875 73V55.25M10.875 19.75V2M2 10.875H19.75M2 64.125H19.75M41.05 5.55L34.8937 21.5565C33.8925 24.1594 33.392 25.4609 32.6135 26.5557C31.9236 27.5259 31.0759 28.3736 30.1057 29.0635C29.0109 29.842 27.7094 30.3425 25.1065 31.3437L9.1 37.5L25.1065 43.6563C27.7094 44.6575 29.0109 45.158 30.1057 45.9365C31.0759 46.6264 31.9236 47.4741 32.6135 48.4443C33.392 49.5391 33.8925 50.8406 34.8937 53.4435L41.05 69.45L47.2063 53.4435C48.2075 50.8406 48.708 49.5391 49.4865 48.4443C50.1764 47.4741 51.0241 46.6264 51.9943 45.9365C53.0891 45.158 54.3906 44.6575 56.9935 43.6563L73 37.5L56.9935 31.3437C54.3906 30.3425 53.0891 29.842 51.9943 29.0635C51.0241 28.3736 50.1764 27.5259 49.4865 26.5557C48.708 25.4609 48.2075 24.1594 47.2063 21.5565L41.05 5.55Z" stroke="#BE9E45" stroke-width="4" stroke-linecap="round" stroke-linejoin="round"/>
</svg>
