<svg width="93" height="93" viewBox="0 0 93 93" fill="none" xmlns="http://www.w3.org/2000/svg">
<path d="M13.875 90V68.25M13.875 24.75V3M3 13.875H24.75M3 79.125H24.75M50.85 7.35L43.3063 26.9636C42.0796 30.1531 41.4662 31.7479 40.5124 33.0893C39.667 34.2782 38.6282 35.317 37.4393 36.1624C36.0979 37.1162 34.5031 37.7296 31.3135 38.9563L11.7 46.5L31.3136 54.0437C34.5031 55.2704 36.0979 55.8838 37.4393 56.8376C38.6282 57.683 39.667 58.7218 40.5124 59.9107C41.4662 61.2521 42.0796 62.8469 43.3063 66.0365L50.85 85.65L58.3937 66.0364C59.6204 62.8469 60.2338 61.2521 61.1876 59.9107C62.033 58.7218 63.0718 57.683 64.2607 56.8376C65.6021 55.8838 67.1969 55.2704 70.3865 54.0437L90 46.5L70.3864 38.9563C67.1969 37.7296 65.6021 37.1162 64.2607 36.1624C63.0718 35.317 62.033 34.2782 61.1876 33.0893C60.2338 31.7479 59.6204 30.1531 58.3937 26.9635L50.85 7.35Z" stroke="#BE9E45" stroke-width="5" stroke-linecap="round" stroke-linejoin="round"/>
</svg>
