<svg width="55" height="61" viewBox="0 0 55 61" fill="none" xmlns="http://www.w3.org/2000/svg">
<path d="M5.1194 3.00054C4.69916 2.99085 4.28627 3.11181 3.93769 3.34672C3.58911 3.58163 3.32202 3.91892 3.17326 4.31206C3.00753 4.69157 2.95925 5.11201 3.03466 5.5192C3.11006 5.92639 3.30569 6.30166 3.59633 6.59665L27.5 30.5002L51.4037 6.59665C51.6943 6.30166 51.8899 5.92639 51.9653 5.5192C52.0407 5.11201 51.9925 4.69157 51.8267 4.31206C51.678 3.91892 51.4109 3.58163 51.0623 3.34672C50.7137 3.11181 50.3008 2.99085 49.8806 3.00054H5.1194Z" stroke="#BE9E45" stroke-width="5" stroke-linecap="round" stroke-linejoin="round"/>
<path d="M27.4999 30.5005V58.0002" stroke="#BE9E45" stroke-width="5" stroke-linecap="round" stroke-linejoin="round"/>
<path d="M14.8078 58H40.1922" stroke="#BE9E45" stroke-width="5" stroke-linecap="round" stroke-linejoin="round"/>
</svg>
