<svg width="88" height="88" viewBox="0 0 88 88" fill="none" xmlns="http://www.w3.org/2000/svg">
<path d="M24.0105 24.0105V13.7389C24.0105 9.62993 24.0105 7.57542 24.8102 6.00599C25.5136 4.62547 26.636 3.50308 28.0165 2.79967C29.586 2 31.6405 2 35.7495 2H63.6295C67.7385 2 69.793 2 71.3624 2.79967C72.743 3.50308 73.8653 4.62547 74.5688 6.00599C75.3684 7.57542 75.3684 9.62993 75.3684 13.7389V41.619C75.3684 45.728 75.3684 47.7825 74.5688 49.3519C73.8653 50.7324 72.743 51.8548 71.3624 52.5582C69.793 53.3579 67.7385 53.3579 63.6295 53.3579H53.3579M13.7389 75.3684H41.619C45.728 75.3684 47.7825 75.3684 49.3519 74.5688C50.7324 73.8653 51.8548 72.743 52.5582 71.3624C53.3579 69.793 53.3579 67.7385 53.3579 63.6295V35.7495C53.3579 31.6405 53.3579 29.586 52.5582 28.0165C51.8548 26.636 50.7324 25.5136 49.3519 24.8102C47.7825 24.0105 45.728 24.0105 41.619 24.0105H13.7389C9.62993 24.0105 7.57542 24.0105 6.00599 24.8102C4.62547 25.5136 3.50308 26.636 2.79967 28.0165C2 29.586 2 31.6405 2 35.7495V63.6295C2 67.7385 2 69.793 2.79967 71.3624C3.50308 72.743 4.62547 73.8653 6.00599 74.5688C7.57542 75.3684 9.62993 75.3684 13.7389 75.3684Z" stroke="#BE9E45" stroke-width="3" stroke-linecap="round" stroke-linejoin="round"/>
<path d="M81.7581 74.4488L79.8582 64.9494C79.7521 64.4188 79.699 64.1534 79.57 63.9374C79.4559 63.7464 79.2997 63.5839 79.1134 63.4624C78.9026 63.3249 78.6395 63.2614 78.1135 63.1345L58.3684 58.3684M58.3684 58.3684L63.1345 78.1135C63.2614 78.6395 63.3249 78.9026 63.4624 79.1134C63.5839 79.2997 63.7464 79.4559 63.9374 79.57C64.1535 79.699 64.4188 79.7521 64.9494 79.8582L74.4488 81.7581M58.3684 58.3684L69.4581 69.458M79.0264 85.9516L85.9516 79.0264C86.5305 78.4475 86.82 78.158 86.9285 77.8243C87.0238 77.5307 87.0238 77.2144 86.9285 76.9208C86.82 76.587 86.5305 76.2975 85.9516 75.7186L84.8739 74.6409C84.2949 74.0619 84.0055 73.7725 83.6717 73.664C83.3781 73.5686 83.0618 73.5686 82.7682 73.664C82.4344 73.7725 82.145 74.0619 81.5661 74.6409L74.6409 81.566C74.062 82.145 73.7725 82.4344 73.664 82.7682C73.5686 83.0618 73.5686 83.3781 73.664 83.6717C73.7725 84.0055 74.062 84.2949 74.6409 84.8738L75.7186 85.9516C76.2976 86.5305 76.587 86.82 76.9208 86.9284C77.2144 87.0238 77.5307 87.0238 77.8243 86.9284C78.1581 86.82 78.4475 86.5305 79.0264 85.9516ZM74.4488 71.5251C74.4488 73.1398 73.1398 74.4488 71.5251 74.4488C69.9104 74.4488 68.6014 73.1398 68.6014 71.5251C68.6014 69.9104 69.9104 68.6014 71.5251 68.6014C73.1398 68.6014 74.4488 69.9104 74.4488 71.5251Z" stroke="#BE9E45" stroke-width="2" stroke-linecap="round" stroke-linejoin="round"/>
<path d="M27.5 45.0495H11.8421M27.5 35.9231L11.8421 35.9231M43.1579 54.6104H11.8421M43.1579 63.7367H11.8421M40.931 34.1152L34.2039 39.1565C33.7003 39.5339 33.4484 39.7226 33.3584 39.9539C33.2795 40.1566 33.2795 40.3814 33.3584 40.584C33.4484 40.8154 33.7003 41.0041 34.2039 41.3815L40.931 46.4228C41.6477 46.9599 42.0061 47.2284 42.3061 47.2222C42.5671 47.2168 42.8119 47.0945 42.9729 46.8891C43.1579 46.653 43.1579 46.2054 43.1579 45.3102V35.2278C43.1579 34.3326 43.1579 33.885 42.9729 33.6489C42.8119 33.4435 42.5671 33.3212 42.3061 33.3158C42.0061 33.3095 41.6477 33.5781 40.931 34.1152Z" stroke="#BE9E45" stroke-width="3" stroke-linecap="round" stroke-linejoin="round"/>
</svg>
