<svg width="88" height="88" viewBox="0 0 88 88" fill="none" xmlns="http://www.w3.org/2000/svg">
<path d="M24.0105 24.0105V13.7389C24.0105 9.62993 24.0105 7.57542 24.8102 6.00599C25.5136 4.62547 26.636 3.50308 28.0165 2.79967C29.586 2 31.6405 2 35.7495 2H63.6295C67.7385 2 69.793 2 71.3624 2.79967C72.743 3.50308 73.8653 4.62547 74.5688 6.00599C75.3684 7.57542 75.3684 9.62993 75.3684 13.7389V41.619C75.3684 45.728 75.3684 47.7825 74.5688 49.3519C73.8653 50.7324 72.743 51.8548 71.3624 52.5582C69.793 53.3579 67.7385 53.3579 63.6295 53.3579H53.3579M13.7389 75.3684H41.619C45.728 75.3684 47.7825 75.3684 49.3519 74.5688C50.7324 73.8653 51.8548 72.743 52.5582 71.3624C53.3579 69.793 53.3579 67.7385 53.3579 63.6295V35.7495C53.3579 31.6405 53.3579 29.586 52.5582 28.0165C51.8548 26.636 50.7324 25.5136 49.3519 24.8102C47.7825 24.0105 45.728 24.0105 41.619 24.0105H13.7389C9.62993 24.0105 7.57542 24.0105 6.00599 24.8102C4.62547 25.5136 3.50308 26.636 2.79967 28.0165C2 29.586 2 31.6405 2 35.7495V63.6295C2 67.7385 2 69.793 2.79967 71.3624C3.50308 72.743 4.62547 73.8653 6.00599 74.5688C7.57542 75.3684 9.62993 75.3684 13.7389 75.3684Z" stroke="#BE9E45" stroke-width="3" stroke-linecap="round" stroke-linejoin="round"/>
<path d="M81.7578 74.4488L79.858 64.9494C79.7518 64.4188 79.6988 64.1534 79.5697 63.9374C79.4557 63.7464 79.2995 63.5839 79.1131 63.4624C78.9023 63.3249 78.6393 63.2614 78.1132 63.1345L58.3682 58.3684M58.3682 58.3684L63.1342 78.1135C63.2612 78.6395 63.3247 78.9026 63.4621 79.1134C63.5837 79.2997 63.7461 79.4559 63.9371 79.57C64.1532 79.699 64.4185 79.7521 64.9492 79.8582L74.4486 81.7581M58.3682 58.3684L69.4578 69.458M79.0262 85.9516L85.9514 79.0264C86.5303 78.4475 86.8197 78.158 86.9282 77.8243C87.0236 77.5307 87.0236 77.2144 86.9282 76.9208C86.8197 76.587 86.5303 76.2975 85.9514 75.7186L84.8736 74.6409C84.2947 74.0619 84.0052 73.7725 83.6714 73.664C83.3778 73.5686 83.0616 73.5686 82.768 73.664C82.4342 73.7725 82.1447 74.0619 81.5658 74.6409L74.6406 81.566C74.0617 82.145 73.7722 82.4344 73.6638 82.7682C73.5684 83.0618 73.5684 83.3781 73.6638 83.6717C73.7722 84.0055 74.0617 84.2949 74.6406 84.8738L75.7184 85.9516C76.2973 86.5305 76.5868 86.82 76.9205 86.9284C77.2141 87.0238 77.5304 87.0238 77.824 86.9284C78.1578 86.82 78.4473 86.5305 79.0262 85.9516ZM74.4486 71.5251C74.4486 73.1398 73.1396 74.4488 71.5249 74.4488C69.9101 74.4488 68.6011 73.1398 68.6011 71.5251C68.6011 69.9104 69.9101 68.6014 71.5249 68.6014C73.1396 68.6014 74.4486 69.9104 74.4486 71.5251Z" stroke="#BE9E45" stroke-width="2" stroke-linecap="round" stroke-linejoin="round"/>
<path d="M27.4997 45.0495H11.8418M27.4997 35.9231L11.8418 35.9231M43.1576 54.6104H11.8418M43.1576 63.7367H11.8418M40.9307 34.1152L34.2036 39.1565C33.6999 39.5339 33.4481 39.7226 33.3581 39.9539C33.2792 40.1566 33.2792 40.3814 33.3581 40.584C33.4481 40.8154 33.6999 41.0041 34.2036 41.3815L40.9307 46.4228C41.6474 46.9599 42.0058 47.2284 42.3058 47.2222C42.5668 47.2168 42.8116 47.0945 42.9726 46.8891C43.1576 46.653 43.1576 46.2054 43.1576 45.3102V35.2278C43.1576 34.3326 43.1576 33.885 42.9726 33.6489C42.8116 33.4435 42.5668 33.3212 42.3058 33.3158C42.0058 33.3095 41.6474 33.5781 40.9307 34.1152Z" stroke="#BE9E45" stroke-width="3" stroke-linecap="round" stroke-linejoin="round"/>
</svg>
