<svg width="70" height="65" viewBox="0 0 70 65" fill="none" xmlns="http://www.w3.org/2000/svg">
<path fill-rule="evenodd" clip-rule="evenodd" d="M6.21672 6.32134C13.7767 -1.36587 25.6207 -2.04193 33.9343 4.29318C34.7359 4.90404 35.5047 5.5801 36.2337 6.32134C41.4541 11.6296 43.3866 19.015 42.0314 25.8611L63.7492 54.6481L60.7539 57.6938L61.1672 58.6294C61.3631 59.0728 61.5703 59.286 61.7121 59.393C61.855 59.5008 62.0211 59.5685 62.2299 59.5936C62.6994 59.6501 63.3518 59.4745 63.8884 59.0582C64.5566 58.5397 64.8869 57.8233 64.5927 56.1642C64.2747 54.3713 63.3184 52.1982 62.1011 49.6603C61.955 49.3556 61.8045 49.0448 61.6518 48.7292C60.6195 46.5958 59.4806 44.2421 58.8494 42.1178C58.1518 39.7698 57.7176 36.5214 60.0834 34.1158C61.1196 33.0622 62.7994 33.0622 63.8356 34.1158C64.8717 35.1693 64.8717 36.8775 63.8356 37.931C63.7 38.0689 63.3351 38.5586 63.929 40.5573C64.4237 42.2224 65.3406 44.1227 66.3995 46.3173C66.5538 46.6369 66.711 46.9628 66.8704 47.295C68.0407 49.7351 69.3458 52.5625 69.8147 55.2067C70.3074 57.9847 69.9499 61.1419 67.1074 63.3476C65.6549 64.4746 63.6537 65.1983 61.6059 64.9518C59.6803 64.7199 57.9274 63.648 56.7848 61.7297L53.7436 64.8221L25.4331 42.7388C18.7002 44.1168 11.4371 42.1517 6.21672 36.8435C5.46537 36.0795 4.78213 35.2725 4.167 34.4302C-2.00413 25.9807 -1.32089 13.9858 6.21672 6.32134ZM53.2816 57.6614L30.4608 39.8603C31.6846 38.0898 33.0937 36.221 34.3576 34.9358C35.6215 33.6507 37.4593 32.2179 39.2005 30.9734L56.707 54.1783L53.2816 57.6614ZM30.6055 31.1206C32.2927 29.4049 34.6113 27.6421 36.5347 26.2854L36.8295 24.7964C37.8096 19.8453 36.5023 14.5421 32.9251 10.6057C29.6215 12.2054 25.6453 14.6223 21.8245 17.895C17.2072 21.8499 12.9111 26.9717 10.2502 33.3075C14.1388 37.0746 19.4409 38.4614 24.386 37.4493L25.8503 37.1496C27.1846 35.1938 28.9182 32.8362 30.6055 31.1206ZM18.4059 13.7684C21.6817 10.9625 25.0716 8.71695 28.1711 7.01284C22.2395 4.08869 14.8926 5.12994 9.96884 10.1366C5.14474 15.0419 4.06408 22.3122 6.72686 28.2771C9.77721 22.3379 14.0246 17.5212 18.4059 13.7684Z" fill="#BE9E45"/>
</svg>
