<svg width="83" height="83" viewBox="0 0 83 83" fill="none" xmlns="http://www.w3.org/2000/svg">
<path d="M33.6 53.35L21.4527 65.6491C19.7584 67.3647 18.9112 68.2224 18.183 68.2829C17.5512 68.3354 16.9326 68.0815 16.52 67.6002C16.0444 67.0454 16.0444 65.8398 16.0444 63.4286V57.2669C16.0444 56.4639 16.0444 56.0625 15.9736 55.7422C15.7318 54.65 15.156 53.9837 14.1104 53.5862C13.8038 53.4697 13.2467 53.3881 12.1326 53.2249V53.2249C6.95229 52.4661 2.88392 48.3977 2.12512 43.2174C2 42.3633 2 41.344 2 39.3055V20.96C2 14.3234 2 11.0051 3.29157 8.47021C4.42767 6.24049 6.24049 4.42767 8.47021 3.29157C11.0051 2 14.3234 2 20.96 2H50.19C56.8266 2 60.1449 2 62.6798 3.29157C64.9095 4.42767 66.7223 6.24049 67.8584 8.47021C69.15 11.0051 69.15 14.3234 69.15 20.96V37.55M69.15 81L60.5532 75.0232C59.3447 74.183 58.7405 73.7629 58.0829 73.4651C57.4993 73.2008 56.8856 73.0084 56.2555 72.8923C55.5456 72.7614 54.8097 72.7614 53.3378 72.7614H46.24C41.8156 72.7614 39.6034 72.7614 37.9135 71.9004C36.427 71.143 35.2184 69.9344 34.461 68.448C33.6 66.7581 33.6 64.5458 33.6 60.1214V50.19C33.6 45.7656 33.6 43.5534 34.461 41.8635C35.2184 40.377 36.427 39.1684 37.9135 38.411C39.6034 37.55 41.8156 37.55 46.24 37.55H68.36C72.7844 37.55 74.9966 37.55 76.6865 38.411C78.173 39.1684 79.3816 40.377 80.139 41.8635C81 43.5534 81 45.7656 81 50.19V60.9114C81 64.5924 81 66.4328 80.3986 67.8846C79.5968 69.8204 78.0589 71.3583 76.1232 72.1601C74.6714 72.7614 72.8309 72.7614 69.15 72.7614V81Z" stroke="#BE9E45" stroke-width="3" stroke-linecap="round" stroke-linejoin="round"/>
</svg>
