<svg width="46" height="46" viewBox="0 0 46 46" fill="none" xmlns="http://www.w3.org/2000/svg">
<path d="M24.5549 9.24468C25.0039 7.86271 26.959 7.86271 27.4081 9.24468L29.7146 16.3433C30.317 18.1974 32.0448 19.4528 33.9943 19.4528H41.4583C42.9114 19.4528 43.5155 21.3122 42.34 22.1663L36.3015 26.5535C34.7243 27.6994 34.0643 29.7306 34.6668 31.5847L36.9733 38.6833C37.4223 40.0653 35.8406 41.2145 34.665 40.3604L28.6265 35.9732C27.0493 34.8273 24.9136 34.8273 23.3364 35.9732L17.298 40.3604C16.1224 41.2145 14.5407 40.0653 14.9897 38.6833L17.2962 31.5847C17.8986 29.7306 17.2387 27.6994 15.6615 26.5535L9.623 22.1663C8.44743 21.3122 9.05159 19.4528 10.5047 19.4528H17.9686C19.9182 19.4528 21.646 18.1974 22.2484 16.3433L24.5549 9.24468Z" stroke="#BE9E45" stroke-width="3"/>
</svg>
