<svg width="78" height="78" viewBox="0 0 78 78" fill="none" xmlns="http://www.w3.org/2000/svg">
<path d="M66.4542 74.633L31.3777 61.584C30.3394 61.2181 29.41 60.5973 28.6751 59.7789C27.9403 58.9604 27.4236 57.9707 27.1725 56.9006C26.9215 55.8306 26.9442 54.7148 27.2386 53.6558C27.533 52.5969 28.0896 51.6289 28.8572 50.8409L50.8588 28.883C51.6715 28.1228 52.6634 27.5796 53.7425 27.3039C54.8217 27.0282 55.9531 27.0289 57.0318 27.3059C58.1106 27.5829 59.1019 28.1273 59.9137 28.8885C60.7255 29.6497 61.3316 30.6032 61.6758 31.6605L74.6982 66.6674C75.0599 67.8015 75.0973 69.0138 74.806 70.168C74.5148 71.3221 73.9066 72.3722 73.0498 73.2001C72.193 74.028 71.1217 74.6007 69.9564 74.8539C68.7912 75.107 67.5782 75.0305 66.4542 74.633V74.633Z" stroke="#BE9E45" stroke-width="5" stroke-linecap="round" stroke-linejoin="round"/>
<path d="M16.5674 43.83C18.8991 42.5313 21.6298 42.1393 24.2338 42.7294" stroke="#BE9E45" stroke-width="5" stroke-linecap="round" stroke-linejoin="round"/>
<path d="M29.7474 34.8463C27.5025 31.1774 26.572 26.7455 27.1313 22.3848" stroke="#BE9E45" stroke-width="5" stroke-linecap="round" stroke-linejoin="round"/>
<path d="M38.6622 3C34.6438 11.1583 35.1726 20.0011 40.1526 27.9231" stroke="#BE9E45" stroke-width="5" stroke-linecap="round" stroke-linejoin="round"/>
<path d="M17.1118 36.6253C18.5618 36.6253 19.7373 35.4522 19.7373 34.005C19.7373 32.5579 18.5618 31.3848 17.1118 31.3848C15.6618 31.3848 14.4863 32.5579 14.4863 34.005C14.4863 35.4522 15.6618 36.6253 17.1118 36.6253Z" stroke="#BE9E45" stroke-width="3.5" stroke-linecap="round" stroke-linejoin="round"/>
<path d="M4.62549 44.9329C6.0755 44.9329 7.25097 43.7598 7.25097 42.3127C7.25097 40.8655 6.0755 39.6924 4.62549 39.6924C3.17547 39.6924 2 40.8655 2 42.3127C2 43.7598 3.17547 44.9329 4.62549 44.9329Z" stroke="#BE9E45" stroke-width="3.5" stroke-linecap="round" stroke-linejoin="round"/>
<path d="M48.3276 19.3177C49.7776 19.3177 50.9531 18.1446 50.9531 16.6974C50.9531 15.2503 49.7776 14.0771 48.3276 14.0771C46.8776 14.0771 45.7021 15.2503 45.7021 16.6974C45.7021 18.1446 46.8776 19.3177 48.3276 19.3177Z" stroke="#BE9E45" stroke-width="3.5" stroke-linecap="round" stroke-linejoin="round"/>
</svg>
