<svg width="64" height="63" viewBox="0 0 64 63" fill="none" xmlns="http://www.w3.org/2000/svg">
<path d="M11.9231 60.0001C16.8511 60.0001 20.8461 56.0242 20.8461 51.1197C20.8461 46.2152 16.8511 42.2393 11.9231 42.2393C6.99499 42.2393 3 46.2152 3 51.1197C3 56.0242 6.99499 60.0001 11.9231 60.0001Z" stroke="#BE9E45" stroke-width="5" stroke-linecap="round" stroke-linejoin="round"/>
<path d="M52.0769 48.8996C57.005 48.8996 61 44.9236 61 40.0191C61 35.1146 57.005 31.1387 52.0769 31.1387C47.1489 31.1387 43.1539 35.1146 43.1539 40.0191C43.1539 44.9236 47.1489 48.8996 52.0769 48.8996Z" stroke="#BE9E45" stroke-width="5" stroke-linecap="round" stroke-linejoin="round"/>
<path d="M60.9997 40.019V5.20767C60.9978 4.86795 60.9176 4.53321 60.7652 4.2292C60.6129 3.9252 60.3924 3.66005 60.1209 3.45416C59.8494 3.24828 59.534 3.10715 59.1991 3.04166C58.8641 2.97616 58.5186 2.98803 58.189 3.07636L22.4967 12.9337C22.025 13.06 21.6081 13.337 21.3099 13.722C21.0117 14.107 20.8487 14.5788 20.8459 15.065V51.1195" stroke="#BE9E45" stroke-width="5" stroke-linecap="round" stroke-linejoin="round"/>
<path d="M20.8459 26.6982L60.9997 15.5977" stroke="#BE9E45" stroke-width="5" stroke-linecap="round" stroke-linejoin="round"/>
</svg>
