<svg width="95" height="87" viewBox="0 0 95 87" fill="none" xmlns="http://www.w3.org/2000/svg">
<path d="M60.0848 68.6467V85M79.8338 85L66.8277 74.2302C64.429 72.2439 63.2296 71.2507 61.8907 70.8712C60.7103 70.5366 59.4593 70.5366 58.2789 70.8712C56.9401 71.2507 55.7407 72.2439 53.3419 74.2302L40.3359 85M46.9189 52.2933V55.564M60.0848 45.752V55.564M73.2508 39.2106V55.564M92.9997 26.1279H27.1699M30.4614 26.1279H89.7082V52.9474C89.7082 58.4427 89.7082 61.1903 88.632 63.2892C87.6853 65.1355 86.1747 66.6365 84.3167 67.5772C82.2044 68.6467 79.4393 68.6467 73.9091 68.6467H46.2606C40.7303 68.6467 37.9652 68.6467 35.853 67.5772C33.995 66.6365 32.4844 65.1355 31.5377 63.2892C30.4614 61.1903 30.4614 58.4427 30.4614 52.9474V26.1279Z" stroke="#BE9E45" stroke-width="3.5" stroke-linecap="round" stroke-linejoin="round"/>
<path d="M26.6862 33.9936C30.7763 33.9936 34.092 30.6881 34.092 26.6105C34.092 22.5329 30.7763 19.2273 26.6862 19.2273C22.596 19.2273 19.2803 22.5329 19.2803 26.6105C19.2803 30.6881 22.596 33.9936 26.6862 33.9936Z" fill="#252525"/>
<path d="M43.2932 33.3224C42.9945 33.9972 42.9054 34.7458 43.0374 35.4716C43.1694 36.1973 43.5164 36.867 44.0338 37.3943L44.1685 37.5286C44.5858 37.9441 44.9168 38.4376 45.1427 38.9809C45.3686 39.5241 45.4849 40.1063 45.4849 40.6944C45.4849 41.2824 45.3686 41.8647 45.1427 42.4079C44.9168 42.9511 44.5858 43.4446 44.1685 43.8602C43.7516 44.2762 43.2566 44.6062 42.7117 44.8314C42.1668 45.0566 41.5828 45.1725 40.9929 45.1725C40.4031 45.1725 39.819 45.0566 39.2741 44.8314C38.7293 44.6062 38.2342 44.2762 37.8174 43.8602L37.6827 43.7259C37.1538 43.2101 36.4821 42.8641 35.754 42.7326C35.026 42.601 34.2752 42.6898 33.5983 42.9876C32.9345 43.2712 32.3684 43.7421 31.9697 44.3424C31.571 44.9426 31.357 45.646 31.3541 46.366V46.7463C31.3541 47.933 30.8812 49.0712 30.0395 49.9103C29.1977 50.7495 28.0561 51.2209 26.8657 51.2209C25.6753 51.2209 24.5337 50.7495 23.6919 49.9103C22.8502 49.0712 22.3773 47.933 22.3773 46.7463V46.5449C22.3599 45.8044 22.1195 45.0862 21.6872 44.4837C21.255 43.8812 20.6509 43.4223 19.9536 43.1666C19.2767 42.8688 18.5258 42.7799 17.7978 42.9115C17.0698 43.0431 16.398 43.3891 15.8691 43.9049L15.7345 44.0392C15.3176 44.4552 14.8226 44.7852 14.2777 45.0104C13.7329 45.2356 13.1488 45.3515 12.5589 45.3515C11.9691 45.3515 11.385 45.2356 10.8402 45.0104C10.2953 44.7852 9.80026 44.4552 9.38341 44.0392C8.96609 43.6236 8.63503 43.1301 8.40916 42.5869C8.18328 42.0437 8.06702 41.4614 8.06702 40.8734C8.06702 40.2853 8.18328 39.703 8.40916 39.1598C8.63503 38.6166 8.96609 38.1231 9.38341 37.7075L9.51806 37.5733C10.0354 37.046 10.3825 36.3763 10.5145 35.6505C10.6465 34.9248 10.5574 34.1762 10.2586 33.5014C9.97416 32.8397 9.5018 32.2753 8.89971 31.8778C8.29761 31.4803 7.59206 31.267 6.86991 31.2641H6.48839C5.298 31.2641 4.15636 30.7926 3.31462 29.9535C2.47288 29.1143 2 27.9762 2 26.7895C2 25.6027 2.47288 24.4646 3.31462 23.6254C4.15636 22.7863 5.298 22.3148 6.48839 22.3148H6.69037C7.43319 22.2975 8.1536 22.0578 8.75795 21.6269C9.3623 21.1959 9.82263 20.5937 10.0791 19.8985C10.3778 19.2237 10.467 18.4752 10.335 17.7494C10.203 17.0236 9.8559 16.3539 9.33853 15.8266L9.20387 15.6924C8.78656 15.2768 8.4555 14.7833 8.22962 14.2401C8.00375 13.6969 7.88749 13.1146 7.88749 12.5266C7.88749 11.9385 8.00375 11.3563 8.22962 10.8131C8.4555 10.2698 8.78656 9.77634 9.20387 9.36077C9.62072 8.94473 10.1157 8.61469 10.6606 8.3895C11.2055 8.16432 11.7896 8.04842 12.3794 8.04842C12.9693 8.04842 13.5533 8.16432 14.0982 8.3895C14.6431 8.61469 15.1381 8.94473 15.555 9.36077L15.6896 9.49501C16.2185 10.0108 16.8903 10.3568 17.6183 10.4884C18.3463 10.62 19.0972 10.5311 19.774 10.2333H19.9536C20.6173 9.94971 21.1834 9.4788 21.5822 8.87855C21.9809 8.2783 22.1949 7.57491 22.1978 6.85497V6.47463C22.1978 5.28788 22.6707 4.14974 23.5124 3.31059C24.3541 2.47143 25.4958 2 26.6862 2C27.8766 2 29.0182 2.47143 29.8599 3.31059C30.7017 4.14974 31.1746 5.28788 31.1746 6.47463V6.67599C31.1774 7.39593 31.3914 8.09931 31.7902 8.69956C32.1889 9.29981 32.755 9.77073 33.4188 10.0543C34.0956 10.3522 34.8465 10.441 35.5745 10.3094C36.3025 10.1778 36.9743 9.8318 37.5032 9.31602L37.6379 9.18178C38.0547 8.76575 38.5497 8.4357 39.0946 8.21052C39.6395 7.98534 40.2235 7.86943 40.8134 7.86943C41.4032 7.86943 41.9873 7.98534 42.5322 8.21052C43.0771 8.4357 43.5721 8.76575 43.9889 9.18178C44.4062 9.59735 44.7373 10.0909 44.9632 10.6341C45.1891 11.1773 45.3053 11.7595 45.3053 12.3476C45.3053 12.9356 45.1891 13.5179 44.9632 14.0611C44.7373 14.6043 44.4062 15.0978 43.9889 15.5134L43.8543 15.6476C43.3369 16.1749 42.9898 16.8446 42.8578 17.5704C42.7258 18.2962 42.815 19.0447 43.1137 19.7195V19.8985C43.3982 20.5603 43.8705 21.1246 44.4726 21.5221C45.0747 21.9196 45.7803 22.133 46.5024 22.1358H46.8839C48.0743 22.1358 49.216 22.6073 50.0577 23.4464C50.8995 24.2856 51.3723 25.4237 51.3723 26.6105C51.3723 27.7972 50.8995 28.9354 50.0577 29.7745C49.216 30.6137 48.0743 31.0851 46.8839 31.0851H46.682C45.9598 31.088 45.2543 31.3013 44.6522 31.6988C44.0501 32.0963 43.5777 32.6607 43.2932 33.3224Z" fill="#252525"/>
<path d="M26.6862 33.9936C30.7763 33.9936 34.092 30.6881 34.092 26.6105C34.092 22.5329 30.7763 19.2273 26.6862 19.2273C22.596 19.2273 19.2803 22.5329 19.2803 26.6105C19.2803 30.6881 22.596 33.9936 26.6862 33.9936Z" stroke="#BE9E45" stroke-width="3.5" stroke-linecap="round" stroke-linejoin="round"/>
<path d="M43.2932 33.3224C42.9945 33.9972 42.9054 34.7458 43.0374 35.4716C43.1694 36.1973 43.5164 36.867 44.0338 37.3943L44.1685 37.5286C44.5858 37.9441 44.9168 38.4376 45.1427 38.9809C45.3686 39.5241 45.4849 40.1063 45.4849 40.6944C45.4849 41.2824 45.3686 41.8647 45.1427 42.4079C44.9168 42.9511 44.5858 43.4446 44.1685 43.8602C43.7516 44.2762 43.2566 44.6062 42.7117 44.8314C42.1668 45.0566 41.5828 45.1725 40.9929 45.1725C40.4031 45.1725 39.819 45.0566 39.2741 44.8314C38.7293 44.6062 38.2342 44.2762 37.8174 43.8602L37.6827 43.7259C37.1538 43.2101 36.4821 42.8641 35.754 42.7326C35.026 42.601 34.2752 42.6898 33.5983 42.9876C32.9345 43.2712 32.3684 43.7421 31.9697 44.3424C31.571 44.9426 31.357 45.646 31.3541 46.366V46.7463C31.3541 47.933 30.8812 49.0712 30.0395 49.9103C29.1977 50.7495 28.0561 51.2209 26.8657 51.2209C25.6753 51.2209 24.5337 50.7495 23.6919 49.9103C22.8502 49.0712 22.3773 47.933 22.3773 46.7463V46.5449C22.3599 45.8044 22.1195 45.0862 21.6872 44.4837C21.255 43.8812 20.6509 43.4223 19.9536 43.1666C19.2767 42.8688 18.5258 42.7799 17.7978 42.9115C17.0698 43.0431 16.398 43.3891 15.8691 43.9049L15.7345 44.0392C15.3176 44.4552 14.8226 44.7852 14.2777 45.0104C13.7329 45.2356 13.1488 45.3515 12.5589 45.3515C11.9691 45.3515 11.385 45.2356 10.8402 45.0104C10.2953 44.7852 9.80026 44.4552 9.38341 44.0392C8.96609 43.6236 8.63503 43.1301 8.40916 42.5869C8.18328 42.0437 8.06702 41.4614 8.06702 40.8734C8.06702 40.2853 8.18328 39.703 8.40916 39.1598C8.63503 38.6166 8.96609 38.1231 9.38341 37.7075L9.51806 37.5733C10.0354 37.046 10.3825 36.3763 10.5145 35.6505C10.6465 34.9248 10.5574 34.1762 10.2586 33.5014C9.97416 32.8397 9.5018 32.2753 8.89971 31.8778C8.29761 31.4803 7.59206 31.267 6.86991 31.2641H6.48839C5.298 31.2641 4.15636 30.7926 3.31462 29.9535C2.47288 29.1143 2 27.9762 2 26.7895C2 25.6027 2.47288 24.4646 3.31462 23.6254C4.15636 22.7863 5.298 22.3148 6.48839 22.3148H6.69037C7.43319 22.2975 8.1536 22.0578 8.75795 21.6269C9.3623 21.1959 9.82263 20.5937 10.0791 19.8985C10.3778 19.2237 10.467 18.4752 10.335 17.7494C10.203 17.0236 9.8559 16.3539 9.33853 15.8266L9.20387 15.6924C8.78656 15.2768 8.4555 14.7833 8.22962 14.2401C8.00375 13.6969 7.88749 13.1146 7.88749 12.5266C7.88749 11.9385 8.00375 11.3563 8.22962 10.8131C8.4555 10.2698 8.78656 9.77634 9.20387 9.36077C9.62072 8.94473 10.1157 8.61469 10.6606 8.3895C11.2055 8.16432 11.7896 8.04842 12.3794 8.04842C12.9693 8.04842 13.5533 8.16432 14.0982 8.3895C14.6431 8.61469 15.1381 8.94473 15.555 9.36077L15.6896 9.49501C16.2185 10.0108 16.8903 10.3568 17.6183 10.4884C18.3463 10.62 19.0972 10.5311 19.774 10.2333H19.9536C20.6173 9.94971 21.1834 9.4788 21.5822 8.87855C21.9809 8.2783 22.1949 7.57491 22.1978 6.85497V6.47463C22.1978 5.28788 22.6707 4.14974 23.5124 3.31059C24.3541 2.47143 25.4958 2 26.6862 2C27.8766 2 29.0182 2.47143 29.8599 3.31059C30.7017 4.14974 31.1746 5.28788 31.1746 6.47463V6.67599C31.1774 7.39593 31.3914 8.09931 31.7902 8.69956C32.1889 9.29981 32.755 9.77073 33.4188 10.0543C34.0956 10.3522 34.8465 10.441 35.5745 10.3094C36.3025 10.1778 36.9743 9.8318 37.5032 9.31602L37.6379 9.18178C38.0547 8.76575 38.5497 8.4357 39.0946 8.21052C39.6395 7.98534 40.2235 7.86943 40.8134 7.86943C41.4032 7.86943 41.9873 7.98534 42.5322 8.21052C43.0771 8.4357 43.5721 8.76575 43.9889 9.18178C44.4062 9.59735 44.7373 10.0909 44.9632 10.6341C45.1891 11.1773 45.3053 11.7595 45.3053 12.3476C45.3053 12.9356 45.1891 13.5179 44.9632 14.0611C44.7373 14.6043 44.4062 15.0978 43.9889 15.5134L43.8543 15.6476C43.3369 16.1749 42.9898 16.8446 42.8578 17.5704C42.7258 18.2962 42.815 19.0447 43.1137 19.7195V19.8985C43.3982 20.5603 43.8705 21.1246 44.4726 21.5221C45.0747 21.9196 45.7803 22.133 46.5024 22.1358H46.8839C48.0743 22.1358 49.216 22.6073 50.0577 23.4464C50.8995 24.2856 51.3723 25.4237 51.3723 26.6105C51.3723 27.7972 50.8995 28.9354 50.0577 29.7745C49.216 30.6137 48.0743 31.0851 46.8839 31.0851H46.682C45.9598 31.088 45.2543 31.3013 44.6522 31.6988C44.0501 32.0963 43.5777 32.6607 43.2932 33.3224Z" stroke="#BE9E45" stroke-width="3.5" stroke-linecap="round" stroke-linejoin="round"/>
</svg>
