<svg width="80" height="76" viewBox="0 0 80 76" fill="none" xmlns="http://www.w3.org/2000/svg">
<path d="M43.2163 47.3805L61.4079 74M34.8535 47.3805L16.6619 74M46.4926 41.2619C46.4926 45.3712 43.1537 48.7024 39.0349 48.7024C34.9162 48.7024 31.5772 45.3712 31.5772 41.2619C31.5772 37.1526 34.9162 33.8213 39.0349 33.8213C43.1537 33.8213 46.4926 37.1526 46.4926 41.2619ZM58.2328 9.01555L14.2912 20.7627C13.2826 21.0323 12.7783 21.1671 12.4457 21.4659C12.1531 21.7288 11.9514 22.0773 11.8695 22.4615C11.7765 22.8983 11.9116 23.4015 12.1818 24.4078L15.4632 36.6257C15.7334 37.632 15.8685 38.1351 16.168 38.467C16.4315 38.7589 16.7808 38.9601 17.1659 39.0418C17.6038 39.1346 18.1081 38.9998 19.1166 38.7302L63.0583 26.9831L58.2328 9.01555ZM75.549 27.4954C71.5147 28.5739 69.4975 29.1132 67.7462 28.7418C66.2057 28.4151 64.8084 27.6102 63.7546 26.4425C62.5566 25.115 62.0161 23.1025 60.9351 19.0774L60.356 16.9213C59.275 12.8962 58.7345 10.8836 59.1068 9.13633C59.4342 7.59938 60.2409 6.2053 61.4113 5.1539C62.7418 3.95862 64.759 3.41936 68.7934 2.34084C69.802 2.07121 70.3063 1.93639 70.7441 2.02924C71.1292 2.11091 71.4785 2.31213 71.742 2.60405C72.0415 2.93593 72.1766 3.43907 72.4469 4.44534L77.6584 23.8503C77.9286 24.8566 78.0638 25.3597 77.9707 25.7965C77.8888 26.1807 77.6872 26.5293 77.3946 26.7921C77.0619 27.0909 76.5576 27.2258 75.549 27.4954ZM7.34624 38.0253L12.3887 36.6773C13.3973 36.4076 13.9016 36.2728 14.2342 35.974C14.5268 35.7112 14.7285 35.3626 14.8104 34.9784C14.9034 34.5416 14.7683 34.0385 14.4981 33.0322L13.1469 28.0013C12.8767 26.995 12.7416 26.4919 12.4421 26.16C12.1786 25.8681 11.8293 25.6668 11.4442 25.5852C11.0063 25.4923 10.502 25.6271 9.49345 25.8968L4.45097 27.2448C3.44238 27.5144 2.93808 27.6492 2.60544 27.9481C2.31285 28.2109 2.11117 28.5594 2.02931 28.9437C1.93625 29.3805 2.07137 29.8836 2.34162 30.8899L3.69275 35.9208C3.963 36.9271 4.09813 37.4302 4.39763 37.7621C4.66109 38.054 5.01041 38.2552 5.39553 38.3369C5.83336 38.4298 6.33765 38.2949 7.34624 38.0253Z" stroke="#BE9E45" stroke-width="3" stroke-linecap="round" stroke-linejoin="round"/>
</svg>
