<svg width="96" height="75" viewBox="0 0 96 75" fill="none" xmlns="http://www.w3.org/2000/svg">
<rect x="2" y="2" width="92" height="64" rx="3" stroke="#BE9E45" stroke-width="4"/>
<ellipse cx="13.8556" cy="13" rx="1.97938" ry="2" fill="#BE9E45"/>
<ellipse cx="13.8556" cy="22" rx="1.97938" ry="2" fill="#BE9E45"/>
<path d="M29.6907 70.8475C29.6907 63.3751 35.8692 57.3175 48.4948 57.3175C61.1204 57.3175 67.2989 63.3751 67.2989 70.8475C67.2989 72.0363 66.4405 73 65.3816 73H31.608C30.5491 73 29.6907 72.0363 29.6907 70.8475Z" fill="#2F2F2F"/>
<path d="M55.5463 42.125C55.5463 46.06 52.3893 49.25 48.4948 49.25C44.6003 49.25 41.4433 46.06 41.4433 42.125C41.4433 38.19 44.6003 35 48.4948 35C52.3893 35 55.5463 38.19 55.5463 42.125Z" fill="#2F2F2F"/>
<path d="M29.6907 70.8475C29.6907 63.3751 35.8692 57.3175 48.4948 57.3175C61.1204 57.3175 67.2989 63.3751 67.2989 70.8475C67.2989 72.0363 66.4405 73 65.3816 73H31.608C30.5491 73 29.6907 72.0363 29.6907 70.8475Z" stroke="#BE9E45" stroke-width="4"/>
<path d="M55.5463 42.125C55.5463 46.06 52.3893 49.25 48.4948 49.25C44.6003 49.25 41.4433 46.06 41.4433 42.125C41.4433 38.19 44.6003 35 48.4948 35C52.3893 35 55.5463 38.19 55.5463 42.125Z" stroke="#BE9E45" stroke-width="4"/>
<path d="M61.3608 71.3007C61.3608 65.4014 66.2386 60.619 76.2062 60.619C86.1738 60.619 91.0516 65.4014 91.0516 71.3007C91.0516 72.2392 90.3739 73 89.5379 73H62.8745C62.0385 73 61.3608 72.2392 61.3608 71.3007Z" fill="#2F2F2F"/>
<path d="M81.7732 48.625C81.7732 51.7316 79.2808 54.25 76.2062 54.25C73.1316 54.25 70.6392 51.7316 70.6392 48.625C70.6392 45.5184 73.1316 43 76.2062 43C79.2808 43 81.7732 45.5184 81.7732 48.625Z" fill="#2F2F2F"/>
<path d="M61.3608 71.3007C61.3608 65.4014 66.2386 60.619 76.2062 60.619C86.1738 60.619 91.0516 65.4014 91.0516 71.3007C91.0516 72.2392 90.3739 73 89.5379 73H62.8745C62.0385 73 61.3608 72.2392 61.3608 71.3007Z" stroke="#BE9E45" stroke-width="4"/>
<path d="M81.7732 48.625C81.7732 51.7316 79.2808 54.25 76.2062 54.25C73.1316 54.25 70.6392 51.7316 70.6392 48.625C70.6392 45.5184 73.1316 43 76.2062 43C79.2808 43 81.7732 45.5184 81.7732 48.625Z" stroke="#BE9E45" stroke-width="4"/>
<path d="M8.90723 71.3007C8.90723 65.4014 13.785 60.619 23.7526 60.619C33.7202 60.619 38.5979 65.4014 38.5979 71.3007C38.5979 72.2392 37.9203 73 37.0843 73H10.4209C9.58491 73 8.90723 72.2392 8.90723 71.3007Z" fill="#2F2F2F"/>
<path d="M29.3196 48.625C29.3196 51.7316 26.8272 54.25 23.7526 54.25C20.678 54.25 18.1856 51.7316 18.1856 48.625C18.1856 45.5184 20.678 43 23.7526 43C26.8272 43 29.3196 45.5184 29.3196 48.625Z" fill="#2F2F2F"/>
<path d="M8.90723 71.3007C8.90723 65.4014 13.785 60.619 23.7526 60.619C33.7202 60.619 38.5979 65.4014 38.5979 71.3007C38.5979 72.2392 37.9203 73 37.0843 73H10.4209C9.58491 73 8.90723 72.2392 8.90723 71.3007Z" stroke="#BE9E45" stroke-width="4"/>
<path d="M29.3196 48.625C29.3196 51.7316 26.8272 54.25 23.7526 54.25C20.678 54.25 18.1856 51.7316 18.1856 48.625C18.1856 45.5184 20.678 43 23.7526 43C26.8272 43 29.3196 45.5184 29.3196 48.625Z" stroke="#BE9E45" stroke-width="4"/>
<path d="M21.7732 13H49.4845" stroke="#BE9E45" stroke-width="3" stroke-linecap="round"/>
<path d="M21.7732 22H49.4845" stroke="#BE9E45" stroke-width="3" stroke-linecap="round"/>
</svg>
